<svg width="620" height="48" viewBox="0 0 620 48" fill="none" xmlns="http://www.w3.org/2000/svg">
<path d="M327.156 31.7032C327.164 32.5579 327.149 33.159 327.437 33.9858C329.078 38.7159 334.943 38.8529 339.057 38.8047C340.217 38.7895 341.496 38.5942 342.602 38.2417C344.788 37.5467 347.492 34.9826 346.527 32.4641C345.342 29.3622 340.432 28.718 337.538 28.2158L333.233 27.5387C326.786 26.5343 317.407 25.9332 315.184 18.5147C314.852 17.4038 314.764 16.8839 314.749 15.7248C314.723 13.5842 314.665 12.2298 315.346 10.145C317.683 2.97249 325.485 0.010145 332.474 0H340.323C346.041 0.0684789 354.033 2.31814 356.702 7.86239C357.884 10.3175 357.795 11.5983 357.795 14.203H347.667C347.158 14.203 346.236 14.269 345.823 13.9519C345.446 13.6603 345.259 12.869 345.023 12.4277C344.631 11.6896 344.015 11.0124 343.362 10.4976C341.853 9.31059 338.926 8.89972 337.032 8.87689C334.532 8.849 331.233 8.88197 329.192 10.5331C327.604 11.8189 326.761 13.9798 328.268 15.6766C329.863 17.4748 334.211 18.0201 336.525 18.4639C342.916 19.6915 352.468 19.9603 356.99 25.1089C358.783 27.1531 359.297 29.0909 359.606 31.7032C360.206 36.7351 358.345 42.0181 353.997 44.8664C351.103 46.7635 345.801 47.8946 342.349 47.9352C332.957 48.0443 318.767 48.9928 315.192 37.7902C314.432 35.4112 314.495 34.1152 314.495 31.7032H327.156ZM532.262 0.0355074H536.82H539.605C545.472 0.0101449 552.438 2.46017 556.824 6.38375C561.202 10.2997 563.904 15.8972 563.914 21.8118V26.6307C563.843 32.7075 560.523 38.7286 555.811 42.4392C551.613 45.7464 544.943 47.9276 539.605 47.9352H533.781C526.838 47.8541 518.73 44.2932 514.415 38.8047C511.653 35.2945 509.986 30.5948 509.979 26.1234V21.5582C509.999 17.2998 511.693 12.7777 514.223 9.38414C518.677 3.41126 525.227 1.17175 532.262 0.0355074ZM0 1.26813H12.1544V18.261H33.4246V1.26813H45.579V46.6671H33.4246V27.3916H12.1544V46.6671H0V1.26813ZM70.1411 1.26813H82.5487L87.7903 13.1885L97.3138 34.4931L100.745 42.1018L102.553 46.6671H91.9177L90.054 46.416L88.9171 44.3845L87.0686 40.0728L85.7418 37.7953L83.8148 37.5366H68.875L66.948 37.7953L65.6211 40.0728L63.7727 44.3845L62.6357 46.416L60.772 46.6671H49.8837L55.376 34.4931L63.6359 15.9784L68.0799 6.08701L70.1411 1.26813ZM106.604 1.26813H125.596H131.166C135.598 1.27574 141.574 2.74423 145.346 5.08773C152.895 9.7798 154.559 17.0715 154.462 25.3626C154.374 32.9688 150.781 40.3823 143.827 43.8848C138.201 46.7204 132.21 46.6671 126.102 46.6671H106.604V1.26813ZM162.059 1.26813H203.84V10.3986H174.213V19.2755H199.282V27.8988H174.213V37.5366H204.346V46.6671H162.059V1.26813ZM210.676 1.26813H252.204V10.3986H222.831V19.2755H247.646V27.8988H222.831V37.5366H252.964V46.6671H210.676V1.26813ZM259.294 1.26813H271.448V37.283H296.264V46.6671H259.294V1.26813ZM361.087 46.6671L366.835 33.4786L376.723 11.4131L379.79 4.56526C380.993 1.84132 380.836 1.28335 383.117 1.26813H391.473C392.005 1.26813 392.894 1.20472 393.334 1.51922C393.778 1.83625 394.542 3.71561 394.821 4.31163L397.999 11.4131L407.758 33.2249L413.503 46.4135H414.01L419.249 34.4931L429.674 11.1595L434.014 1.26813H446.421L451.663 13.1885L461.186 34.4931L464.617 42.1018L466.425 46.6671H455.79L453.927 46.416L452.79 44.3845L450.941 40.0728L449.614 37.7953L447.687 37.5366H432.748L430.821 37.7953L429.494 40.0728L427.645 44.3845L426.508 46.416L424.645 46.6671H402.868L401.02 46.416L399.936 44.3845L398.057 40.0728L396.722 37.7953L394.765 37.5366H379.825L377.903 37.7953L376.749 39.8192L374.799 44.3845L373.644 46.4084L371.976 46.6671H361.087ZM470.477 1.26813H482.885V37.283H507.7V46.6671H470.477V1.26813ZM571.764 1.26813H583.918V19.7828L598.605 6.08448L603.922 1.4203L605.695 1.26813H618.862L611.772 7.93341L605.695 13.4016L597.845 20.5437C599.382 21.6698 602.828 25.9586 604.239 27.6452L614.198 39.312C615.682 41.0594 619.3 44.5493 619.622 46.6671H607.214C606.703 46.6671 605.92 46.6975 605.452 46.5149C604.436 46.1243 602.279 43.0884 601.491 42.1018L593.743 32.4641C592.56 30.9829 590.575 28.7206 589.742 27.1379L585.944 30.6456L584.176 32.4666L583.918 34.2394V46.6671H571.764V1.26813ZM535.807 9.20153C531.593 9.81277 529.223 10.1476 526.266 13.6958C522.505 18.2103 522.156 26.8184 524.759 31.9568C525.476 33.3695 526.521 34.6681 527.704 35.7155C530.168 37.8942 533.343 38.6703 536.567 38.7946C537.678 38.8377 538.063 38.7134 539.099 38.5891C542.955 38.1275 545.619 36.971 548.022 33.7322C550.524 30.3615 550.792 26.5952 550.747 22.5727C550.681 17.0259 547.338 11.4715 541.884 9.83306C540.324 9.36385 537.43 9.0519 535.807 9.20153ZM119.012 37.5366C124.514 37.5366 132.053 38.092 136.737 34.909C143.202 30.5162 143.321 17.1096 136.737 12.8208C132.063 9.77473 124.443 10.3986 119.012 10.3986V37.5366ZM76.4715 13.1885L73.6355 19.5292L69.6346 29.6742H83.0551L80.8825 24.0944L76.4715 13.1885ZM387.422 13.1885L384.991 18.7683L380.585 29.6742H394.005L391.58 23.3336L387.422 13.1885ZM440.344 13.1885L437.508 19.5292L433.507 29.6742H446.928L444.755 24.0944L440.344 13.1885Z" fill="white"/>
</svg>
