<svg width="1596" height="447" viewBox="0 0 1596 447" fill="none" xmlns="http://www.w3.org/2000/svg">
<path d="M305.115 0.724636C303.956 0.724636 302.784 1.07966 301.766 1.793L190.523 82.3731L121.961 82.2735V339.658L0.753906 446.873H121.961H186.445L186.752 361.098C180.945 359.67 176.463 354.577 176.463 348.26C176.463 341.945 180.946 336.851 186.854 335.426L187.16 262.484H169.637V223.365H440.414V262.484H422.383L422.078 335.525C427.681 337.157 431.857 342.149 431.857 348.26C431.857 354.476 427.578 359.466 421.977 360.994L421.467 446.873H486.563V82.2735L419.633 82.3731L308.387 1.793C307.419 1.07966 306.274 0.724636 305.115 0.724636ZM303.449 30.7227C304.864 30.717 306.281 31.1327 307.502 31.9707L449.592 129.355V153.787H157.654V130.842L299.406 32.0039C300.621 31.1566 302.034 30.7283 303.449 30.7227ZM786.699 86.6836L775.93 87.9082C774.903 90.5789 773.954 93.0684 773.078 95.375C772.209 97.6817 771.159 100.376 769.926 103.449L725.775 207.598C723.517 212.828 721.55 217.007 719.859 220.137C718.161 223.265 716.367 225.675 714.471 227.365C712.575 229.056 710.339 230.234 707.779 230.904C705.211 231.568 701.933 232.059 697.936 232.367L698.242 237.904C702.034 237.904 705.953 237.849 710.006 237.746C714.059 237.643 717.987 237.596 721.779 237.596C726.599 237.596 731.362 237.643 736.086 237.746C740.803 237.849 745.055 237.904 748.855 237.904L749.313 232.059C742.85 231.749 738.363 231.079 735.85 230.059C733.338 229.032 732.082 227.287 732.082 224.83C732.082 223.289 733.107 219.591 735.162 213.752L747.006 183.594H795.77L806.695 216.209C807.311 218.057 807.826 219.726 808.238 221.211C808.641 222.696 808.846 224.006 808.846 225.129C808.846 227.8 807.62 229.57 805.156 230.439C802.699 231.317 798.588 231.957 792.846 232.367L793.312 237.904C797.619 237.904 801.981 237.849 806.389 237.746C810.797 237.643 815.869 237.596 821.613 237.596C827.563 237.596 833.124 237.643 838.307 237.746C843.483 237.849 848.23 237.904 852.535 237.904L853.002 232.059C848.997 231.749 845.741 231.34 843.229 230.826C840.717 230.313 838.639 229.419 837.004 228.133C835.36 226.853 833.923 224.931 832.689 222.363C831.465 219.803 830.074 216.265 828.541 211.746L793.928 111.445C792.798 108.064 791.589 104.318 790.309 100.217C789.029 96.1168 787.822 91.6063 786.699 86.6836ZM1336.21 87.3008C1324.11 87.3008 1313.39 89.244 1304.06 93.1387C1294.72 97.0414 1286.73 102.478 1280.06 109.447C1273.39 116.423 1268.22 124.702 1264.53 134.293C1260.83 143.885 1258.99 154.369 1258.99 165.754C1258.99 177.242 1260.85 187.624 1264.6 196.908C1268.34 206.183 1273.57 214.109 1280.29 220.674C1287.01 227.239 1295.03 232.286 1304.37 235.826C1313.7 239.366 1324.31 241.129 1336.21 241.129C1348.31 241.129 1359.03 239.184 1368.37 235.289C1377.7 231.386 1385.69 225.95 1392.36 218.982C1399.03 212.005 1404.2 203.725 1407.9 194.135C1411.59 184.543 1413.44 174.059 1413.44 162.674C1413.44 151.194 1411.57 140.804 1407.82 131.522C1404.08 122.246 1398.87 114.321 1392.21 107.754C1385.54 101.197 1377.52 96.1416 1368.13 92.6016C1358.75 89.0629 1348.11 87.3008 1336.21 87.3008ZM1517.09 88.9903C1514.22 88.9903 1510.71 89.2746 1506.55 89.836C1502.4 90.3973 1497.55 90.6817 1492.01 90.6817C1489.56 90.6817 1486.81 90.6582 1483.79 90.6035C1480.76 90.5555 1477.97 90.5235 1475.4 90.5235C1472.84 90.5235 1470.45 90.5011 1468.25 90.4531C1466.04 90.3985 1464.12 90.3731 1462.48 90.3731L1462.17 96.2207C1466.48 96.4261 1469.91 96.7803 1472.48 97.2949C1475.04 97.8083 1476.96 98.605 1478.25 99.6797C1479.53 100.754 1480.38 102.114 1480.79 103.758C1481.2 105.4 1481.4 107.447 1481.4 109.912V212.828C1481.4 216.724 1481.17 219.876 1480.71 222.285C1480.25 224.696 1479.35 226.592 1478.01 227.982C1476.69 229.365 1474.81 230.391 1472.4 231.055C1469.99 231.725 1466.79 232.208 1462.79 232.516L1463.1 238.055C1464.53 238.055 1466.27 238.031 1468.33 237.975C1470.37 237.928 1472.53 237.904 1474.79 237.904C1477.14 237.904 1479.5 237.873 1481.86 237.826C1484.22 237.77 1486.74 237.748 1489.4 237.748C1495.76 237.748 1501.61 237.802 1506.94 237.904C1512.27 238.007 1517.4 238.055 1522.32 238.055L1522.63 232.209C1517.81 232.106 1514.06 231.774 1511.4 231.213C1508.73 230.645 1506.71 229.797 1505.33 228.668C1503.94 227.547 1503.09 226.132 1502.78 224.441C1502.48 222.751 1502.32 220.673 1502.32 218.209V169.596C1503.96 169.706 1505.37 169.777 1506.55 169.832C1507.73 169.88 1508.73 169.902 1509.55 169.902H1512.02C1513.55 169.902 1514.89 170.061 1516.02 170.369C1517.14 170.677 1518.14 171.111 1519.01 171.672C1519.89 172.241 1520.61 172.929 1521.17 173.75C1521.73 174.573 1522.32 175.497 1522.94 176.523C1526.83 183.193 1530.58 189.75 1534.16 196.213C1537.76 202.676 1541.04 208.648 1544.01 214.131C1546.99 219.622 1549.55 224.442 1551.7 228.598C1553.86 232.746 1555.45 235.897 1556.48 238.055C1557.91 237.952 1559.47 237.873 1561.16 237.826C1562.86 237.77 1565.14 237.748 1568.01 237.748C1573.34 237.748 1578.5 237.802 1583.47 237.904C1588.44 238.007 1592.47 238.055 1595.54 238.055L1595.85 232.209C1592.27 231.901 1589.34 231.545 1587.08 231.135C1584.83 230.724 1582.86 230.082 1581.17 229.205C1579.47 228.336 1577.9 227.159 1576.47 225.674C1575.04 224.189 1573.34 222.112 1571.39 219.441C1569.96 217.395 1568.14 214.573 1565.93 210.979C1563.73 207.392 1561.26 203.213 1558.54 198.441C1555.83 193.677 1552.88 188.422 1549.7 182.67C1546.52 176.934 1543.29 170.929 1540.01 164.672C1544.42 163.036 1548.45 160.904 1552.09 158.289C1555.73 155.674 1558.88 152.655 1561.55 149.219C1564.22 145.781 1566.29 141.959 1567.78 137.756C1569.27 133.552 1570.01 129.087 1570.01 124.371C1570.01 117.291 1568.47 111.477 1565.4 106.91C1562.32 102.352 1558.29 98.7332 1553.32 96.0625C1548.35 93.3999 1542.78 91.5515 1536.63 90.5235C1530.47 89.5048 1523.97 88.9903 1517.09 88.9903ZM572.24 90.3731L571.783 96.2207C576.191 96.4261 579.698 96.7816 582.314 97.2949C584.929 97.8083 586.928 98.607 588.318 99.6817C589.701 100.755 590.625 102.115 591.084 103.758C591.551 105.402 591.779 107.447 591.779 109.912V212.828C591.779 216.723 591.519 219.875 591.006 222.285C590.493 224.695 589.521 226.59 588.09 227.98C586.653 229.363 584.622 230.391 582.008 231.055C579.392 231.727 575.986 232.208 571.783 232.516L572.24 238.055C573.679 238.055 575.497 238.031 577.701 237.977C579.905 237.929 582.244 237.904 584.701 237.904C587.167 237.904 589.623 237.874 592.088 237.826C594.544 237.772 597.16 237.746 599.934 237.746H607.471C609.413 237.746 611.674 237.772 614.242 237.826C616.802 237.874 619.827 237.904 623.311 237.904C626.796 237.904 630.643 237.929 634.855 237.977C639.058 238.031 644.541 238.055 651.313 238.055H675.006C675.102 236.205 675.363 233.853 675.773 230.977C676.184 228.109 676.698 225.035 677.314 221.748C677.922 218.469 678.594 215.135 679.313 211.746C680.023 208.365 680.798 205.188 681.619 202.209L675.156 200.826C672.794 206.365 670.645 210.979 668.693 214.668C666.741 218.367 664.468 221.36 661.852 223.668C659.237 225.983 656.028 227.618 652.236 228.598C648.436 229.57 643.57 230.059 637.621 230.059H631.932C627.721 230.059 624.363 229.799 621.85 229.285C619.338 228.772 617.395 227.878 616.004 226.59C614.621 225.31 613.721 223.541 613.318 221.289C612.906 219.029 612.701 216.162 612.701 212.67V115.602C612.701 111.808 612.953 108.68 613.467 106.215C613.98 103.758 614.952 101.838 616.391 100.447C617.828 99.0646 619.852 98.0371 622.467 97.3731C625.083 96.7091 628.495 96.2201 632.697 95.9121L632.238 90.3731C630.801 90.3731 628.977 90.3965 626.773 90.4512C624.569 90.4992 622.239 90.5235 619.781 90.5235C617.316 90.5235 614.85 90.5555 612.393 90.6035C609.927 90.6595 607.004 90.6817 603.623 90.6817C601.166 90.6817 598.314 90.6595 595.082 90.6035C591.859 90.5555 588.857 90.5235 586.084 90.5235C583.319 90.5235 580.727 90.4992 578.316 90.4512C575.907 90.3965 573.876 90.3731 572.24 90.3731ZM1110.56 90.3731L1110.11 96.2207C1114.82 96.4261 1118.59 96.7816 1121.41 97.2949C1124.23 97.8083 1126.36 98.605 1127.8 99.6797C1129.23 100.754 1130.18 102.114 1130.64 103.758C1131.11 105.4 1131.34 107.447 1131.34 109.912V212.826C1131.34 216.62 1131.08 219.725 1130.56 222.135C1130.05 224.544 1129.08 226.465 1127.65 227.902C1126.21 229.341 1124.18 230.391 1121.56 231.055C1118.95 231.725 1115.49 232.208 1111.18 232.516L1111.65 238.055C1113.39 238.055 1115.44 238.031 1117.79 237.977C1120.16 237.929 1122.57 237.904 1125.03 237.904C1127.49 237.904 1129.9 237.874 1132.26 237.826C1134.62 237.772 1137.02 237.746 1139.49 237.746C1141.64 237.746 1144.67 237.772 1148.57 237.826C1152.46 237.874 1156.11 237.904 1159.49 237.904C1162.87 237.904 1166.1 237.929 1169.18 237.977C1172.25 238.031 1174.81 238.055 1176.87 238.055L1177.18 232.209C1171.43 232.106 1166.92 231.774 1163.64 231.213C1160.36 230.645 1157.87 229.821 1156.18 228.748C1154.49 227.673 1153.41 226.258 1152.95 224.52C1152.49 222.774 1152.26 220.674 1152.26 218.209V170.061C1159.95 170.266 1167.59 170.552 1175.18 170.906C1182.76 171.27 1191.22 171.853 1200.56 172.676L1200.87 159.441L1199.79 158.367L1152.26 159.908V103.908C1152.26 101.348 1152.69 99.7599 1153.56 99.1426C1154.43 98.5266 1156.41 98.2188 1159.49 98.2188H1176.72C1181.95 98.2188 1186.2 98.6539 1189.49 99.5313C1192.77 100.401 1195.43 101.862 1197.48 103.908C1199.54 105.962 1201.12 108.782 1202.25 112.369C1203.38 115.964 1204.4 120.474 1205.33 125.91L1212.1 125.754C1212.2 119.299 1212.41 113.088 1212.71 107.139C1213.02 101.197 1213.48 95.6037 1214.1 90.3731C1193.48 90.3731 1177.67 90.4275 1166.64 90.5235C1155.62 90.6341 1147.38 90.6817 1141.95 90.6817C1139.8 90.6817 1137.21 90.6582 1134.18 90.6035C1131.15 90.5555 1128.31 90.5235 1125.64 90.5235C1122.98 90.5235 1120.34 90.5011 1117.72 90.4531C1115.11 90.3985 1112.72 90.3731 1110.56 90.3731ZM833.725 90.375L833.416 96.2207C837.413 96.5287 840.645 96.9398 843.109 97.4531C845.567 97.9665 847.645 98.9142 849.336 100.297C851.027 101.68 852.487 103.679 853.719 106.295C854.952 108.91 856.28 112.424 857.719 116.832C864.797 137.548 871.591 158.06 878.102 178.365C884.611 198.671 891.611 219.337 899.102 240.361L908.797 239.596C910.945 233.646 913.41 226.931 916.176 219.441C918.949 211.959 921.842 204.287 924.867 196.441C927.894 188.595 930.919 180.885 933.945 173.293C936.971 165.7 939.609 158.88 941.869 152.828C946.278 166.679 950.971 180.91 955.941 195.518C960.919 210.135 965.864 225.081 970.787 240.361L981.098 239.596C988.271 219.393 995.303 199.522 1002.17 179.984C1009.04 160.446 1016.17 140.733 1023.56 120.832C1025.5 115.499 1027.27 111.272 1028.87 108.143C1030.45 105.015 1032.22 102.603 1034.17 100.912C1036.12 99.2215 1038.4 98.0377 1041.02 97.375C1043.63 96.711 1046.93 96.2215 1050.94 95.9121L1050.47 90.375C1046.68 90.375 1042.75 90.4288 1038.71 90.5235C1034.66 90.6341 1030.73 90.6817 1026.94 90.6817C1021.91 90.6817 1017.04 90.6341 1012.32 90.5235C1007.6 90.4288 1002.94 90.375 998.328 90.375L998.019 96.2207C1005.09 96.6314 1009.99 97.3268 1012.71 98.2988C1015.42 99.2708 1016.78 101.095 1016.78 103.758C1016.78 105.503 1015.92 109.139 1014.17 114.678L981.863 209.131L951.557 112.369C950.426 107.858 949.865 105.039 949.865 103.908C949.865 101.143 951.145 99.2454 953.713 98.2188C956.272 97.1908 960.736 96.4268 967.096 95.9121L966.639 90.375C962.324 90.375 957.994 90.4288 953.633 90.5235C949.271 90.6341 943.867 90.6817 937.404 90.6817C932.174 90.6817 926.968 90.6341 921.793 90.5235C916.61 90.4288 911.871 90.375 907.564 90.375L907.256 96.2207C910.945 96.5287 913.924 96.9398 916.176 97.4531C918.436 97.9665 920.355 98.9142 921.943 100.297C923.531 101.68 924.922 103.679 926.1 106.295C927.277 108.91 928.587 112.424 930.025 116.832L936.789 139.137L909.713 209.131L879.256 112.369C878.743 110.529 878.307 108.908 877.951 107.525C877.589 106.143 877.414 104.887 877.414 103.758C877.414 101.095 878.593 99.2454 880.947 98.2188C883.31 97.1908 887.409 96.4268 893.256 95.9121L892.797 90.375C888.484 90.375 884.154 90.4288 879.793 90.5235C875.432 90.6341 870.383 90.6817 864.641 90.6817C858.691 90.6817 853.128 90.6341 847.953 90.5235C842.77 90.4288 838.03 90.375 833.725 90.375ZM1335.29 95.9121C1340.42 95.9121 1346.28 97.0664 1352.9 99.3731C1359.52 101.681 1365.49 105.677 1370.82 111.373C1376.16 117.062 1380.52 124.576 1383.9 133.906C1387.28 143.245 1388.98 154.78 1388.98 168.52C1388.98 180.213 1387.49 190.136 1384.52 198.291C1381.54 206.444 1377.56 213.081 1372.59 218.209C1367.62 223.337 1361.87 227.001 1355.36 229.205C1348.85 231.418 1342.78 232.516 1337.14 232.516C1332.01 232.516 1326.14 231.363 1319.52 229.057C1312.9 226.75 1306.93 222.751 1301.6 217.055C1296.27 211.365 1291.91 203.852 1288.52 194.521C1285.14 185.191 1283.45 173.648 1283.45 159.908C1283.45 148.215 1284.93 138.292 1287.9 130.139C1290.88 121.984 1294.86 115.349 1299.83 110.221C1304.81 105.094 1310.55 101.427 1317.06 99.2227C1323.57 97.0187 1329.65 95.9121 1335.29 95.9121ZM1513.4 97.4531C1522.42 97.4531 1530.09 99.8617 1536.4 104.682C1542.71 109.502 1545.86 117.038 1545.86 127.293C1545.86 139.705 1542.55 148.627 1535.93 154.063C1529.32 159.499 1520.68 162.215 1510.01 162.215H1507.25C1506.43 162.215 1505.6 162.191 1504.78 162.137C1503.96 162.089 1503.15 162.009 1502.32 161.906V110.529C1502.32 108.475 1502.43 106.634 1502.63 104.99C1502.84 103.348 1503.34 101.965 1504.17 100.834C1504.99 99.7047 1506.3 98.8582 1508.09 98.2969C1509.89 97.7356 1511.66 97.4531 1513.4 97.4531ZM773.623 116.525L792.846 174.367H750.545L773.623 116.525ZM157.654 171.113H449.592L437.213 204.609H170.033L157.654 171.113ZM256.127 262.484C240.643 262.484 228.113 275.014 228.012 290.498L227.807 336.137C232.391 338.277 235.65 342.862 235.65 348.26C235.65 353.761 232.392 358.348 227.705 360.486L227.297 446.875H283.633L284.041 361.303C277.725 360.181 272.834 354.882 272.834 348.26C272.834 341.537 277.724 336.24 284.143 335.223L284.348 290.805C284.348 282.959 281.188 275.932 276.094 270.736C271 265.643 263.972 262.484 256.127 262.484ZM353.416 262.484C337.932 262.484 325.299 275.014 325.299 290.498L324.992 336.748C329.067 338.989 331.92 343.27 331.92 348.26C331.92 353.353 329.067 357.532 324.891 359.875L324.484 446.875H380.717L381.227 360.689C376.235 358.755 372.668 353.965 372.668 348.26C372.668 342.557 376.336 337.667 381.328 335.729L381.533 290.805C381.635 275.218 369.003 262.484 353.416 262.484ZM732.658 305.898L723.43 306.949L721.059 313.279C720.529 314.781 719.605 317.102 718.285 320.27L682.424 408.617C679.081 416.787 676.492 421.93 674.643 424.039C671.483 427.65 666.204 429.711 658.816 430.24L659.213 435.645C661.409 435.645 664.75 435.604 669.238 435.51C673.718 435.423 677.1 435.383 679.391 435.383C681.935 435.383 685.916 435.423 691.32 435.51C696.732 435.604 700.708 435.645 703.26 435.645L703.519 429.973C693.935 429.365 689.148 426.86 689.148 422.459C689.148 420.706 689.891 417.932 691.391 414.154L700.621 390.941H737.936L747.693 415.475C748.831 418.375 749.406 420.927 749.406 423.123C749.406 427.074 745.054 429.45 736.355 430.24L736.75 435.645C739.469 435.645 744.089 435.604 750.592 435.51C757.093 435.423 761.716 435.383 764.441 435.383C767.428 435.383 772.391 435.423 779.336 435.51C786.281 435.604 791.25 435.645 794.236 435.645L794.504 429.973C787.647 429.451 782.939 427.998 780.395 425.627C778.459 423.692 775.993 419.029 773.008 411.65L738.986 327.127C737.58 322.995 736.529 319.787 735.826 317.496C734.593 313.459 733.534 309.588 732.658 305.898ZM1082.34 306.42C1070.12 306.42 1059.93 308.884 1051.75 313.807C1041.81 319.875 1036.85 328.842 1036.85 340.709C1036.85 351.96 1040.54 361.188 1047.93 368.395C1052.76 373.056 1060.76 377.891 1071.92 382.9C1080.27 386.598 1086.03 389.718 1089.2 392.262C1094.47 396.48 1097.11 401.49 1097.11 407.297C1097.11 421.89 1090.65 429.182 1077.73 429.182C1068.15 429.182 1060.59 426.369 1055.05 420.744C1050.91 416.525 1046.87 409.233 1042.92 398.859L1035.53 400.178C1038.26 410.812 1040.19 421.715 1041.33 432.879C1054.26 436.482 1065.07 438.283 1073.77 438.283C1086.26 438.283 1096.89 435.338 1105.68 429.451C1115.88 422.594 1120.98 413.057 1120.98 400.834C1120.98 389.41 1117.33 380.183 1110.03 373.143C1105.38 368.576 1097.06 363.565 1085.11 358.113C1075.71 353.808 1069.99 350.863 1067.97 349.283C1062.96 345.585 1060.45 340.662 1060.45 334.508C1060.45 321.677 1066.26 315.262 1077.86 315.262C1094.56 315.262 1103.66 324.008 1105.15 341.5L1112.54 340.971C1112.54 329.459 1112.94 319.48 1113.73 311.043C1101.59 307.962 1091.13 306.42 1082.34 306.42ZM622.285 308.008C619.733 308.008 615.663 308.229 610.086 308.664C604.499 309.107 600.439 309.328 597.889 309.328C595.075 309.328 590.191 309.28 583.254 309.193C576.31 309.107 571.429 309.059 568.615 309.059L568.354 314.598C574.327 314.867 578.198 315.435 579.951 316.313C583.207 317.814 584.834 321.147 584.834 326.338V413.492C584.834 419.907 583.886 424.15 581.998 426.221C580.11 428.282 575.732 429.578 568.875 430.107L569.145 435.645C571.602 435.645 576.002 435.604 582.33 435.51C588.658 435.423 593.101 435.385 595.645 435.385C599.073 435.385 604.697 435.423 612.527 435.51C620.349 435.604 625.975 435.645 629.404 435.645L629.664 430.107C622.459 430.021 617.883 429.626 615.955 428.922C611.728 427.342 609.619 423.731 609.619 418.105V382.244C613.403 383.824 618.065 384.615 623.596 384.615C637.138 384.615 648.476 381.541 657.617 375.387C668.52 368.093 673.973 357.633 673.973 344.004C673.973 320.001 656.74 308.008 622.285 308.008ZM807.531 309.059L807.137 314.598C813.197 314.866 817.156 315.435 819.004 316.311C822.52 317.892 824.275 321.234 824.275 326.338V413.23C824.275 419.818 823.2 424.149 821.043 426.219C818.894 428.281 814.255 429.578 807.137 430.107L807.531 435.645C810.605 435.645 816.106 435.606 824.014 435.512C831.923 435.424 837.769 435.385 841.553 435.385C846.562 435.385 851.264 435.424 855.656 435.512C860.058 435.606 869.767 435.645 884.803 435.645H901.813C902.334 426.591 904.222 416.13 907.477 404.264L900.619 403.078C896.487 412.749 893.019 418.856 890.207 421.406C886.075 425.01 879.043 426.813 869.111 426.813H865.549C858.959 426.813 854.692 426.062 852.756 424.568C850.3 422.632 849.066 418.415 849.066 411.912V331.475C849.066 324.885 850.141 320.555 852.299 318.492C854.448 316.422 859.084 315.127 866.203 314.598L865.809 309.059C863.082 309.059 858.381 309.105 851.705 309.193C845.021 309.28 840.322 309.328 837.596 309.328C834.609 309.328 829.592 309.28 822.56 309.193C815.528 309.105 810.518 309.059 807.531 309.059ZM918.166 309.059L917.772 314.598C923.839 314.866 927.789 315.435 929.639 316.313C933.155 317.893 934.916 321.234 934.916 326.338V413.23C934.916 420.088 933.597 424.568 930.957 426.678C928.761 428.439 923.839 429.578 916.191 430.107L916.586 435.647C919.398 435.647 924.756 435.606 932.672 435.512C940.581 435.425 945.946 435.385 948.76 435.385C956.226 435.385 967.522 435.425 982.644 435.512C997.766 435.606 1009.06 435.647 1016.53 435.647C1016.97 427.121 1018.86 416.881 1022.21 404.92L1015.21 403.734C1011.26 413.057 1007.65 419.029 1004.4 421.668C1000.18 425.097 993.105 426.813 983.174 426.813H976.184C969.594 426.813 965.327 426.062 963.391 424.568C960.933 422.632 959.701 418.413 959.701 411.91V375.252C977.636 375.695 991.873 376.397 1002.42 377.361L1002.69 364.84L1001.77 363.914L959.701 365.234V322.641C959.701 320.358 960.182 318.951 961.154 318.422C961.762 317.987 963.35 317.766 965.902 317.766H981.99C990.862 317.766 996.772 319.062 999.719 321.652C1002.67 324.244 1004.93 330.026 1006.51 338.994L1013.63 338.861C1013.81 327.081 1014.38 317.149 1015.35 309.059C1008.23 309.059 997.483 309.107 983.103 309.193C968.733 309.28 957.986 309.326 950.867 309.326C947.967 309.326 942.518 309.28 934.514 309.193C926.518 309.107 921.066 309.059 918.166 309.059ZM1132.99 309.059C1133.69 316.793 1134.04 328.178 1134.04 343.213L1140.9 343.475C1142.56 333.369 1144.89 326.686 1147.89 323.432C1151.4 319.654 1157.77 317.766 1167.01 317.766H1180.72V413.23C1180.72 420.261 1179.48 424.79 1177.03 426.813C1175 428.479 1170.12 429.578 1162.39 430.107L1162.79 435.647C1165.6 435.647 1170.41 435.606 1177.22 435.512C1184.04 435.425 1188.85 435.385 1191.67 435.385C1194.83 435.385 1200.19 435.425 1207.75 435.512C1215.31 435.606 1220.72 435.647 1223.97 435.647L1224.23 430.107C1217.38 429.846 1213.11 429.364 1211.44 428.652C1207.48 427.16 1205.51 423.73 1205.51 418.373V317.766H1219.62C1228.85 317.766 1235.18 319.654 1238.61 323.432C1241.33 326.6 1243.53 333.283 1245.2 343.475L1252.05 343.213C1252.05 333.188 1252.58 321.811 1253.63 309.059C1247.39 309.059 1237.31 309.107 1223.37 309.193C1209.44 309.28 1199.35 309.326 1193.11 309.326C1186.87 309.326 1176.85 309.28 1163.05 309.193C1149.25 309.107 1139.23 309.059 1132.99 309.059ZM1266.54 309.059L1266.27 314.471C1272.16 314.732 1275.94 315.3 1277.61 316.178C1280.68 317.766 1282.23 321.147 1282.23 326.338V413.365C1282.23 419.78 1281.28 424.039 1279.39 426.148C1277.5 428.258 1273.13 429.578 1266.27 430.107L1266.54 435.645C1268.99 435.645 1273.65 435.604 1280.51 435.51C1287.37 435.423 1292.07 435.385 1294.62 435.385C1297.17 435.385 1301.88 435.423 1308.73 435.51C1315.58 435.604 1320.24 435.645 1322.71 435.645L1322.97 430.107C1316.11 429.578 1311.74 428.258 1309.85 426.148C1307.96 424.039 1307.02 419.78 1307.02 413.365V326.338C1307.02 321.147 1308.55 317.766 1311.63 316.178C1313.3 315.3 1317.08 314.732 1322.97 314.471L1322.71 309.059C1320.6 309.059 1315.94 309.107 1308.73 309.193C1301.52 309.28 1296.87 309.328 1294.76 309.328C1292.65 309.328 1287.94 309.28 1280.65 309.193C1273.35 309.107 1268.64 309.059 1266.54 309.059ZM1337.19 309.059L1336.93 314.598C1345.8 315.214 1351.56 317.766 1354.2 322.246C1356.14 325.501 1357.1 332.089 1357.1 342.029V407.953C1357.1 416.572 1356.18 422.111 1354.34 424.568C1352.13 427.468 1347.12 429.317 1339.3 430.107L1339.7 435.645C1342.07 435.645 1345.9 435.606 1351.17 435.512C1356.45 435.425 1360.27 435.385 1362.64 435.385C1365.1 435.385 1368.77 435.425 1373.65 435.512C1378.53 435.606 1382.2 435.645 1384.66 435.645L1384.93 430.107C1377.37 429.578 1372.66 428.44 1370.82 426.678C1368.52 424.568 1367.39 419.607 1367.39 411.777V337.676L1435.29 418.897C1439.69 424.087 1444.39 430.281 1449.4 437.494L1459.16 436.174V336.096C1459.16 328.36 1459.91 323.304 1461.4 320.926C1463.6 317.498 1468.56 315.388 1476.3 314.598L1476.17 309.059C1473.88 309.059 1470.44 309.107 1465.81 309.193C1461.2 309.28 1457.76 309.328 1455.46 309.328C1453.01 309.328 1449.01 309.28 1443.47 309.193C1437.93 309.107 1433.93 309.059 1431.47 309.059L1431.21 314.598C1438.76 315.127 1443.51 316.273 1445.45 318.027C1447.73 320.137 1448.87 325.106 1448.87 332.928V397.012L1375.17 309.328C1371.91 309.328 1365.59 309.28 1356.18 309.193C1346.78 309.107 1340.45 309.059 1337.19 309.059ZM1489.62 309.059L1489.22 314.598C1495.29 314.866 1499.24 315.435 1501.09 316.313C1504.61 317.893 1506.37 321.234 1506.37 326.338V413.23C1506.37 420.088 1505.05 424.568 1502.41 426.678C1500.21 428.439 1495.29 429.578 1487.64 430.107L1488.04 435.647C1490.85 435.647 1496.21 435.606 1504.12 435.512C1512.03 435.425 1517.4 435.385 1520.21 435.385C1527.68 435.385 1538.97 435.425 1554.1 435.512C1569.22 435.606 1580.51 435.647 1587.98 435.647C1588.43 427.121 1590.31 416.881 1593.66 404.92L1586.66 403.734C1582.71 413.057 1579.1 419.029 1575.86 421.668C1571.64 425.097 1564.56 426.813 1554.63 426.813H1547.63C1541.05 426.813 1536.78 426.062 1534.84 424.568C1532.39 422.632 1531.15 418.413 1531.15 411.91V375.252C1549.09 375.695 1563.33 376.397 1573.87 377.361L1574.14 364.84L1573.22 363.914L1531.15 365.234V322.641C1531.15 320.358 1531.64 318.951 1532.61 318.422C1533.22 317.987 1534.8 317.766 1537.36 317.766H1553.44C1562.31 317.766 1568.23 319.062 1571.17 321.652C1574.12 324.244 1576.39 330.026 1577.97 338.994L1585.09 338.861C1585.26 327.081 1585.83 317.149 1586.8 309.059C1579.68 309.059 1568.94 309.107 1554.56 309.193C1540.19 309.28 1529.44 309.326 1522.32 309.326C1519.42 309.326 1513.97 309.28 1505.97 309.193C1497.97 309.107 1492.52 309.059 1489.62 309.059ZM621.227 316.582C638.189 316.582 646.674 325.943 646.674 344.66C646.674 365.233 638.41 375.52 621.889 375.52C617.749 375.52 613.664 374.904 609.619 373.672V326.338C609.619 322.206 610.631 319.481 612.652 318.162C614.146 317.103 617.007 316.582 621.227 316.582ZM719.209 343.871L734.111 381.186H704.443L719.209 343.871Z" fill="#ffffff"/>
</svg>
