<svg viewBox="0 0 371 24" fill="none" xmlns="http://www.w3.org/2000/svg">
<g clip-path="url(#clip0_362_8)">
<path d="M0 0.600098H1.9L10.2 21.4001L18.5 0.600098H20.3L11 23.4001H9.3L0 0.600098Z" fill="#fff"/>
<path d="M23.7998 0.600098H25.3998V23.4001H23.7998V0.600098Z" fill="#fff"/>
<path d="M31.2002 19.2001C32.0002 20.1001 32.9002 20.9001 34.0002 21.5001C35.1002 22.1001 36.4002 22.4001 37.9002 22.4001C38.8002 22.4001 39.6002 22.3001 40.3002 22.1001C41.0002 21.9001 41.7002 21.6001 42.2002 21.2001C42.7002 20.8001 43.2002 20.3001 43.4002 19.7001C43.7002 19.1001 43.8002 18.4001 43.8002 17.6001C43.8002 16.8001 43.6002 16.0001 43.3002 15.4001C43.0002 14.8001 42.5002 14.3001 42.0002 13.9001C41.5002 13.5001 40.8002 13.2001 40.1002 12.9001C39.4002 12.6001 38.7002 12.4001 38.0002 12.2001C37.1002 12.0001 36.3002 11.7001 35.4002 11.4001C34.5002 11.1001 33.8002 10.7001 33.1002 10.3001C32.4002 9.8001 31.9002 9.2001 31.4002 8.5001C31.2002 7.9001 31.0002 7.0001 31.0002 5.8001C31.0002 5.0001 31.2002 4.3001 31.5002 3.6001C31.8002 2.9001 32.3002 2.3001 32.9002 1.8001C33.5002 1.3001 34.2002 0.900098 35.1002 0.600098C36.0002 0.300098 37.0002 0.100098 38.1002 0.100098C39.1002 0.100098 39.9002 0.200098 40.6002 0.400098C41.3002 0.600098 42.0002 0.900098 42.5002 1.2001C43.1002 1.5001 43.5002 1.8001 43.9002 2.2001C44.3002 2.6001 44.6002 2.9001 44.8002 3.3001L43.6002 4.3001C43.4002 4.0001 43.1002 3.7001 42.8002 3.4001C42.5002 3.1001 42.1002 2.8001 41.6002 2.5001C41.1002 2.2001 40.6002 2.0001 40.0002 1.9001C39.4002 1.7001 38.7002 1.6001 37.8002 1.6001C36.9002 1.6001 36.1002 1.7001 35.4002 2.0001C34.7002 2.3001 34.2002 2.6001 33.7002 3.0001C33.3002 3.4001 32.9002 3.9001 32.7002 4.4001C32.5002 4.9001 32.4002 5.4001 32.4002 6.0001C32.4002 6.8001 32.6002 7.5001 33.0002 8.0001C33.4002 8.5001 33.9002 9.0001 34.5002 9.3001C35.1002 9.7001 35.8002 9.9001 36.6002 10.2001C37.4002 10.4001 38.1002 10.6001 38.9002 10.8001C39.7002 11.0001 40.5002 11.3001 41.3002 11.6001C42.1002 11.9001 42.8002 12.3001 43.4002 12.8001C44.0002 13.3001 44.5002 14.0001 44.9002 14.7001C45.3002 15.5001 45.5002 16.4001 45.5002 17.6001C45.5002 18.6001 45.3002 19.5001 44.9002 20.2001C44.5002 21.0001 43.9002 21.7001 43.2002 22.2001C42.5002 22.7001 41.7002 23.2001 40.7002 23.5001C39.7002 23.8001 38.7002 23.9001 37.6002 23.9001C36.6002 23.9001 35.8002 23.8001 34.9002 23.6001C34.0002 23.4001 33.3002 23.1001 32.7002 22.8001C32.0002 22.5001 31.4002 22.1001 30.9002 21.7001C30.4002 21.3001 30.0002 20.8001 29.7002 20.4001L31.2002 19.2001Z" fill="#fff"/>
<path d="M50.5 0.600098H52.1V13.4001C52.1 14.7001 52.2 15.9001 52.4 17.0001C52.6 18.1001 53 19.0001 53.5 19.8001C54 20.6001 54.8 21.2001 55.7 21.7001C56.6 22.1001 57.8 22.4001 59.2 22.4001C60.6 22.4001 61.8 22.2001 62.7 21.7001C63.6 21.3001 64.3 20.6001 64.9 19.8001C65.4 19.0001 65.8 18.1001 66 17.0001C66.2 15.9001 66.3 14.7001 66.3 13.4001V0.600098H67.9V14.3001C67.9 15.6001 67.8 16.9001 67.5 18.1001C67.2 19.3001 66.7 20.3001 66.1 21.2001C65.4 22.1001 64.5 22.7001 63.4 23.2001C62.3 23.7001 60.9 24.0001 59.2 24.0001C57.5 24.0001 56.1 23.7001 55 23.2001C53.9 22.7001 53 22.0001 52.3 21.2001C51.6 20.3001 51.1 19.3001 50.9 18.1001C50.6 16.9001 50.5 15.7001 50.5 14.3001V0.600098Z" fill="#fff"/>
<path d="M80.0002 0.600098H81.6002L90.9002 23.4001H89.0002L86.0002 16.1001H75.4002L72.5002 23.4001H70.7002L80.0002 0.600098ZM85.5002 14.5001L80.7002 2.7001L76.0002 14.5001H85.5002Z" fill="#fff"/>
<path d="M94.6001 0.600098H96.2001V21.8001H109.1V23.3001H94.6001V0.600098Z" fill="#fff"/>
<path d="M113 0.600098H114.6V23.4001H113V0.600098Z" fill="#fff"/>
<path d="M119.3 21.9001L134.6 2.2001H120V0.600098H136.7V2.1001L121.4 21.8001H137V23.3001H119.3V21.9001Z" fill="#fff"/>
<path d="M141.6 0.600098H143.2V23.4001H141.6V0.600098Z" fill="#fff"/>
<path d="M149.1 0.600098H150.8L165.4 20.9001V0.600098H167V23.4001H165.3L150.7 3.3001V23.4001H149.1V0.600098Z" fill="#fff"/>
<path d="M190 14.0999H183.9V12.5999H191.6V21.0999C191.2 21.3999 190.7 21.7999 190.2 22.0999C189.7 22.3999 189 22.6999 188.3 22.9999C187.6 23.2999 186.8 23.4999 185.9 23.5999C185 23.7999 184 23.7999 182.9 23.7999C181.3 23.7999 179.8 23.4999 178.4 22.8999C177 22.2999 175.9 21.4999 174.9 20.3999C173.9 19.2999 173.2 18.0999 172.6 16.5999C172.1 15.0999 171.8 13.4999 171.8 11.7999C171.8 10.0999 172.1 8.5999 172.6 7.0999C173.1 5.6999 173.9 4.3999 174.9 3.2999C175.9 2.1999 177 1.3999 178.4 0.799902C179.8 0.199902 181.3 -0.100098 182.9 -0.100098C184.2 -0.100098 185.4 0.0999023 186.4 0.399902C187.4 0.799902 188.2 1.1999 188.8 1.6999C189.5 2.1999 190 2.6999 190.4 3.1999C190.8 3.6999 191 3.9999 191.2 4.2999L190 5.1999C189.9 4.9999 189.6 4.6999 189.3 4.2999C189 3.8999 188.5 3.4999 188 3.0999C187.4 2.6999 186.8 2.2999 186 1.9999C185.2 1.6999 184.3 1.4999 183.2 1.4999C181.7 1.4999 180.4 1.7999 179.2 2.2999C178 2.7999 177 3.5999 176.2 4.4999C175.4 5.3999 174.8 6.4999 174.3 7.7999C173.9 9.0999 173.7 10.3999 173.7 11.8999C173.7 13.3999 173.9 14.6999 174.3 15.9999C174.7 17.2999 175.3 18.3999 176.1 19.2999C176.9 20.1999 177.9 20.9999 179 21.4999C180.1 21.9999 181.4 22.2999 182.9 22.2999C184.7 22.2999 186.1 22.0999 187.2 21.6999C188.3 21.2999 189.3 20.8999 190 20.2999V14.0999Z" fill="#fff"/>
<path d="M196.5 0.600098H205.8C207 0.600098 208.1 0.800098 209.1 1.1001C210.1 1.4001 210.9 1.9001 211.6 2.5001C212.3 3.1001 212.9 3.9001 213.2 4.9001C213.6 5.8001 213.8 6.9001 213.8 8.2001C213.8 9.4001 213.6 10.4001 213.2 11.4001C212.8 12.3001 212.3 13.2001 211.6 13.8001C210.9 14.5001 210.1 15.0001 209.1 15.3001C208.1 15.7001 207.1 15.8001 205.9 15.8001H202.3V23.4001H196.4V0.600098H196.5ZM205.3 11.1001C206.1 11.1001 206.8 10.8001 207.2 10.3001C207.7 9.8001 207.9 9.1001 207.9 8.3001C207.9 7.4001 207.7 6.7001 207.2 6.2001C206.7 5.7001 206.1 5.4001 205.2 5.4001H202.4V11.1001H205.3Z" fill="#fff"/>
<path d="M220.5 0.600098H227.4L235.5 23.4001H229L227.5 18.7001H219.9L218.4 23.4001H212.1L220.5 0.600098ZM226.3 14.3001L223.8 5.9001L221.2 14.3001H226.3Z" fill="#fff"/>
<path d="M237.9 0.600098H243.9V18.1001H254.5V23.4001H237.9V0.600098Z" fill="#fff"/>
<path d="M257.2 0.600098H273.6V5.8001H263.2V9.3001H271.7V14.2001H263.2V18.1001H274.3V23.3001H257.2V0.600098Z" fill="#fff"/>
<path d="M279.4 16.1999C280 16.7999 280.9 17.3999 281.9 17.8999C282.9 18.3999 284.1 18.6999 285.3 18.6999C285.6 18.6999 285.9 18.6999 286.2 18.5999C286.5 18.4999 286.8 18.3999 287.1 18.2999C287.4 18.1999 287.6 17.9999 287.7 17.7999C287.9 17.5999 287.9 17.2999 287.9 16.8999C287.9 16.2999 287.6 15.7999 287 15.3999C286.4 14.9999 285.5 14.5999 284.4 14.1999L283.1 13.7999C282.4 13.5999 281.7 13.2999 281 12.8999C280.3 12.4999 279.6 12.0999 279.1 11.5999C278.5 11.0999 278.1 10.4999 277.7 9.7999C277.3 9.0999 277.2 8.2999 277.2 7.3999C277.2 6.3999 277.4 5.3999 277.8 4.4999C278.2 3.5999 278.8 2.7999 279.5 2.0999C280.2 1.3999 281.2 0.899902 282.2 0.499902C283.3 0.0999024 284.6 -0.100098 286 -0.100098C287.1 -0.100098 288.1 -9.76473e-05 289 0.199902C289.9 0.399902 290.7 0.699902 291.4 0.999902C292.1 1.2999 292.7 1.5999 293.1 1.9999C293.6 2.2999 293.9 2.5999 294.2 2.8999L291.1 6.7999C290.3 6.1999 289.5 5.6999 288.6 5.2999C287.7 4.8999 286.8 4.6999 285.9 4.6999C285.6 4.6999 285.3 4.6999 285 4.7999C284.7 4.8999 284.4 4.9999 284.2 5.0999C284 5.1999 283.8 5.3999 283.6 5.5999C283.5 5.7999 283.4 6.0999 283.4 6.3999C283.4 6.6999 283.5 6.9999 283.7 7.2999C283.9 7.5999 284.1 7.7999 284.4 7.8999C284.7 8.0999 285.1 8.1999 285.5 8.3999C285.9 8.4999 286.4 8.6999 286.8 8.8999L287.9 9.1999C288.7 9.4999 289.5 9.6999 290.3 10.0999C291.1 10.3999 291.8 10.8999 292.5 11.3999C293.1 11.9999 293.7 12.6999 294.1 13.4999C294.5 14.2999 294.7 15.3999 294.7 16.5999C294.7 17.5999 294.5 18.5999 294 19.4999C293.5 20.3999 292.9 21.1999 292 21.7999C291.2 22.3999 290.2 22.8999 289.1 23.2999C288 23.6999 286.8 23.7999 285.5 23.7999C283.2 23.7999 281.3 23.4999 279.8 22.8999C278.3 22.2999 277 21.4999 275.9 20.4999L279.4 16.1999Z" fill="#fff"/>
<path d="M302.9 5.9001H295.9V0.600098H316V5.9001H309V23.4001H302.9V5.9001Z" fill="#fff"/>
<path d="M318.7 0.600098H324.7V23.4001H318.7V0.600098Z" fill="#fff"/>
<path d="M328.9 0.600098H334.4L343.1 13.3001V0.600098H349.1V23.4001H343.9L334.8 10.3001V23.4001H328.8V0.600098H328.9Z" fill="#fff"/>
<path d="M353.2 0.600098H369.6V5.8001H359.2V9.3001H367.7V14.2001H359.2V18.1001H370.3V23.3001H353.2V0.600098Z" fill="#fff"/>
</g>
<defs>
<clipPath id="clip0_362_8">
<rect width="370.3" height="23.9" fill="white"/>
</clipPath>
</defs>
</svg>
